<svg
  viewBox="0 0 80 60"
  width="320"
  height="240"
  xmlns="http://www.w3.org/2000/svg"
>
  <!-- 背景 (空) -->
  <rect x="0" y="0" width="80" height="60" fill="hsl(210, 70%, 55%)" />

  <!-- 雲 -->
  <g fill="hsl(0, 0%, 95%)">
    <rect x="10" y="10" width="12" height="4" />
    <rect x="12" y="8" width="8" height="2" />
    <rect x="55" y="20" width="10" height="3" />
    <rect x="57" y="18" width="6" height="2" />
  </g>

  <!-- バルーン -->
  <g transform="translate(35, 20)">
    <rect x="1" y="0" width="3" height="1" fill="hsl(0, 70%, 50%)" />
    <rect x="0" y="1" width="5" height="1" fill="hsl(0, 70%, 50%)" />
    <rect x="0" y="2" width="5" height="1" fill="hsl(0, 70%, 50%)" />
    <rect x="1" y="3" width="3" height="1" fill="hsl(0, 70%, 50%)" />
    <rect x="2" y="4" width="1" height="1" fill="hsl(0, 70%, 50%)" />
    <!-- ハイライト -->
    <rect x="1" y="1" width="1" height="1" fill="hsl(0, 0%, 90%)" />
  </g>

  <!-- プレイヤー -->
  <g transform="translate(36, 25)">
    <rect x="1" y="0" width="1" height="1" fill="hsl(45, 80%, 55%)" />
    <rect x="0" y="1" width="3" height="1" fill="hsl(45, 80%, 55%)" />
    <rect x="1" y="2" width="1" height="1" fill="hsl(45, 80%, 55%)" />
    <rect x="0" y="3" width="1" height="1" fill="hsl(45, 80%, 55%)" />
    <rect x="2" y="3" width="1" height="1" fill="hsl(45, 80%, 55%)" />
  </g>

  <!-- 地面 -->
  <rect x="0" y="55" width="80" height="5" fill="hsl(120, 40%, 35%)" />
</svg>
